<svg xmlns="http://www.w3.org/2000/svg" xmlns:svg="http://www.w3.org/2000/svg" version="1.1" id="svg1" viewBox="0.79 11 249.21 273">
  <defs id="defs1"/>
  <g id="g1">
    <path style="fill:#f33838;fill-opacity:1" d="M 29,281.5 V 279 h 16 16 v 2.5 2.5 H 45 29 Z M 1.4523164,277.25 2.1186104,275.5 10.809305,254.77697 19.5,234.05394 l 2.856989,-0.027 2.856989,-0.027 -0.643435,1.75 -0.643435,1.75 -8.713554,20.73817 L 6.5,278.97633 3.6430112,278.98817 0.78602239,279 Z M 64.378773,277.3297 65.032689,275.5 73.766345,254.75242 82.5,234.00484 85.25,234.00242 88,234 l -0.07263,0.75 -0.07263,0.75 -9.194222,21.5 -9.194222,21.5 -2.870721,0.3297 -2.870722,0.32969 z M 35.586287,203.81253 39.15024,195.5 45.167142,181.25 51.184044,167 h 2.883227 2.883227 l -0.892358,2.25 -0.892358,2.25 -8.507978,20 -8.507979,20 -3.063746,0.31253 -3.063746,0.31252 z m 60.115626,6.52189 0.639143,-1.66558 8.733214,-20.58442 8.73322,-20.58442 3.0382,-0.30903 3.03821,-0.30903 -6.50723,15.30903 -6.50723,15.30903 -3.02804,7.25 -3.02804,7.25 H 97.938067 95.06277 Z M 64.378773,143.3297 65.032689,141.5 73.766345,120.75242 82.5,100.00484 85.25,100.00242 88,100 l -0.07263,0.75 -0.07263,0.75 -9.194222,21.5 -9.194222,21.5 -2.870721,0.3297 -2.870722,0.32969 z m 62.999997,0 0.65392,-1.8297 8.73365,-20.74758 8.73366,-20.74758 2.75,-0.002 2.75,-0.002 -0.0726,0.75 -0.0726,0.75 -9.19422,21.5 -9.19422,21.5 -2.87072,0.3297 -2.87072,0.32969 z M 60,80.5 V 78 H 76.5 93 V 80.5 83 H 76.5 60 Z m 95,0 V 78 H 186.5 218 V 80.5 83 H 186.5 155 Z M 35.586287,69.812526 39.15024,61.5 45.167142,47.25 51.184044,33 h 2.883227 2.883227 l -0.892358,2.25 -0.892358,2.25 -8.507978,20 -8.507979,20 -3.063746,0.312526 -3.063746,0.312525 z M 221.45232,76.25 222.11861,74.5 230.80931,53.77697 239.5,33.053941 242.25,33.02697 245,33 l 0.0188,0.75 0.0187,0.75 -9.26874,21.73928 L 226.5,77.978559 223.64301,77.98928 220.78602,78 Z M 60,13.5 V 11 h 95 95 V 13.5 16 H 155 60 Z" id="path1"/>
  </g>
</svg>